[Header]
FileType HTR
DataType HTRS
FileVersion 1
NumSegments 64
NumFrames 3
DataFrameRate 24
EulerRotationOrder ZYX
CalibrationUnits mm
RotationUnits Degrees
GlobalAxisofGravity Y
BoneLengthAxis Y
ScaleFactor 1.0
[SegmentNames&Hierarchy]
Hips	GLOBAL
Spine	Hips
Spine1	Spine
Spine2	Spine1
Neck	Spine2
Head	Neck
LeftEye	Head
RightEye	Head
LeftShoulder	Spine2
LeftArm	LeftShoulder
LeftForeArm	LeftArm
LeftHand	LeftForeArm
LeftHandThumb1	LeftHand
LeftHandThumb2	LeftHandThumb1
LeftHandThumb3	LeftHandThumb2
LeftHandThumb4	LeftHandThumb3
LeftHandIndex1	LeftHand
LeftHandIndex2	LeftHandIndex1
LeftHandIndex3	LeftHandIndex2
LeftHandIndex4	LeftHandIndex3
LeftHandMiddle1	LeftHand
LeftHandMiddle2	LeftHandMiddle1
LeftHandMiddle3	LeftHandMiddle2
LeftHandMiddle4	LeftHandMiddle3
LeftHandRing1	LeftHand
LeftHandRing2	LeftHandRing1
LeftHandRing3	LeftHandRing2
LeftHandRing4	LeftHandRing3
LeftHandPinky1	LeftHand
LeftHandPinky2	LeftHandPinky1
LeftHandPinky3	LeftHandPinky2
LeftHandPinky4	LeftHandPinky3
RightShoulder	Spine2
RightArm	RightShoulder
RightForeArm	RightArm
RightHand	RightForeArm
RightHandPinky1	RightHand
RightHandPinky2	RightHandPinky1
RightHandPinky3	RightHandPinky2
RightHandPinky4	RightHandPinky3
RightHandRing1	RightHand
RightHandRing2	RightHandRing1
RightHandRing3	RightHandRing2
RightHandRing4	RightHandRing3
RightHandMiddle1	RightHand
RightHandMiddle2	RightHandMiddle1
RightHandMiddle3	RightHandMiddle2
RightHandMiddle4	RightHandMiddle3
RightHandIndex1	RightHand
RightHandIndex2	RightHandIndex1
RightHandIndex3	RightHandIndex2
RightHandIndex4	RightHandIndex3
RightHandThumb1	RightHand
RightHandThumb2	RightHandThumb1
RightHandThumb3	RightHandThumb2
RightHandThumb4	RightHandThumb3
LeftUpLeg	Hips
LeftLeg	LeftUpLeg
LeftFoot	LeftLeg
LeftToeBase	LeftFoot
RightUpLeg	Hips
RightLeg	RightUpLeg
RightFoot	RightLeg
RightToeBase	RightFoot
[BasePosition]
Hips	0	0	0	0	0	0	1
Spine	0	0	0	0	0	0	1
Spine1	0	0	0	0	0	0	1
Spine2	0	0	0	0	0	0	1
Neck	0	0	0	0	0	0	1
Head	0	0	0	0	0	0	1
LeftEye	0	0	0	0	0	0	1
RightEye	0	0	0	0	0	0	1
LeftShoulder	0	0	0	0	0	0	1
LeftArm	0	0	0	0	0	0	1
LeftForeArm	0	0	0	0	0	0	1
LeftHand	0	0	0	0	0	0	1
LeftHandThumb1	0	0	0	0	0	0	1
LeftHandThumb2	0	0	0	0	0	0	1
LeftHandThumb3	0	0	0	0	0	0	1
LeftHandThumb4	0	0	0	0	0	0	1
LeftHandIndex1	0	0	0	0	0	0	1
LeftHandIndex2	0	0	0	0	0	0	1
LeftHandIndex3	0	0	0	0	0	0	1
LeftHandIndex4	0	0	0	0	0	0	1
LeftHandMiddle1	0	0	0	0	0	0	1
LeftHandMiddle2	0	0	0	0	0	0	1
LeftHandMiddle3	0	0	0	0	0	0	1
LeftHandMiddle4	0	0	0	0	0	0	1
LeftHandRing1	0	0	0	0	0	0	1
LeftHandRing2	0	0	0	0	0	0	1
LeftHandRing3	0	0	0	0	0	0	1
LeftHandRing4	0	0	0	0	0	0	1
LeftHandPinky1	0	0	0	0	0	0	1
LeftHandPinky2	0	0	0	0	0	0	1
LeftHandPinky3	0	0	0	0	0	0	1
LeftHandPinky4	0	0	0	0	0	0	1
RightShoulder	0	0	0	0	0	0	1
RightArm	0	0	0	0	0	0	1
RightForeArm	0	0	0	0	0	0	1
RightHand	0	0	0	0	0	0	1
RightHandPinky1	0	0	0	0	0	0	1
RightHandPinky2	0	0	0	0	0	0	1
RightHandPinky3	0	0	0	0	0	0	1
RightHandPinky4	0	0	0	0	0	0	1
RightHandRing1	0	0	0	0	0	0	1
RightHandRing2	0	0	0	0	0	0	1
RightHandRing3	0	0	0	0	0	0	1
RightHandRing4	0	0	0	0	0	0	1
RightHandMiddle1	0	0	0	0	0	0	1
RightHandMiddle2	0	0	0	0	0	0	1
RightHandMiddle3	0	0	0	0	0	0	1
RightHandMiddle4	0	0	0	0	0	0	1
RightHandIndex1	0	0	0	0	0	0	1
RightHandIndex2	0	0	0	0	0	0	1
RightHandIndex3	0	0	0	0	0	0	1
RightHandIndex4	0	0	0	0	0	0	1
RightHandThumb1	0	0	0	0	0	0	1
RightHandThumb2	0	0	0	0	0	0	1
RightHandThumb3	0	0	0	0	0	0	1
RightHandThumb4	0	0	0	0	0	0	1
LeftUpLeg	0	0	0	0	0	0	1
LeftLeg	0	0	0	0	0	0	1
LeftFoot	0	0	0	0	0	0	1
LeftToeBase	0	0	0	0	0	0	1
RightUpLeg	0	0	0	0	0	0	1
RightLeg	0	0	0	0	0	0	1
RightFoot	0	0	0	0	0	0	1
RightToeBase	0	0	0	0	0	0	1
[Hips]
18	-1404.262939	976.0545654	15.54531097	-1.978055835	-78.86180878	5.549535275	1.0
19	-1497.700195	971.3842163	9.155014038	4.368103981	-78.81203461	-1.859942913	1.0
20	-1591.407959	976.2183838	0.6038087606	13.82218742	-79.26715088	-12.45613098	1.0
[Spine]
18	0	101.8159943	1.315000057	2.199967861	1.97659421	-1.357900977	1.0
19	0	101.8159943	1.315000057	2.128807783	2.400202513	-0.02611571364	1.0
20	0	101.8159943	1.315000057	2.358058214	3.368484259	1.419218779	1.0
[Spine1]
18	0	100.8349991	-10.00800037	0.6259954572	13.77713203	-1.878591418	1.0
19	0	100.8349991	-10.00800037	0.7622466683	13.86658287	-1.623986244	1.0
20	0	100.8349991	-10.00800037	0.8882169724	14.14530659	-1.303831339	1.0
[Spine2]
18	0	91	-13.73399925	0.3713770509	13.73229408	-2.231385469	1.0
19	0	91	-13.73399925	0.5092963576	13.82533836	-1.981000185	1.0
20	0	91	-13.73399925	0.6354465485	14.10429192	-1.6620965	1.0
[Neck]
18	0	166.7169952	-25.16200066	3.995240211	6.564089298	0.1873632222	1.0
19	0	166.7169952	-25.16200066	3.954514265	6.555709362	-0.2877959311	1.0
20	0	166.7169952	-25.16200066	3.62789011	6.469567776	-0.3688950539	1.0
[Head]
18	0	96.17900085	16.84999847	-16.02132988	39.24624252	-8.434210777	1.0
19	0	96.17900085	16.84999847	-15.30718422	38.95795059	-8.451040268	1.0
20	0	96.17900085	16.84999847	-14.65836811	38.89525223	-8.499076843	1.0
[LeftEye]
18	30.6760006	64.09500122	92.83599854	0	0	0	1.0
19	30.6760006	64.09500122	92.83599854	0	0	0	1.0
20	30.6760006	64.09500122	92.83599854	0	0	0	1.0
[RightEye]
18	-30.6760006	64.09500122	92.83499908	0	0	0	1.0
19	-30.6760006	64.09500122	92.83499908	0	0	0	1.0
20	-30.6760006	64.09500122	92.83499908	0	0	0	1.0
[LeftShoulder]
18	45.70400238	109.4599991	-26.28000069	3.737885952	-6.682029247	-3.868717194	1.0
19	45.70400238	109.4599991	-26.28000069	3.787042618	-5.616298676	-4.605794907	1.0
20	45.70400238	109.4599991	-26.28000069	3.82117486	-3.926187754	-5.631415367	1.0
[LeftArm]
18	105.923996	-5.24600029	-22.32099915	22.4039402	-31.56142616	-54.45758057	1.0
19	105.923996	-5.24600029	-22.32099915	23.4855957	-31.46045685	-55.01079559	1.0
20	105.923996	-5.24600029	-22.32099915	27.10358429	-29.39566612	-56.69140625	1.0
[LeftForeArm]
18	278.414978	-0.0009999999311	0	4.068196631e-06	-40.69388962	-0.0002196236164	1.0
19	278.414978	-0.0009999999311	0	4.857832209e-06	-41.94712067	-0.0002155547554	1.0
20	278.414978	-0.0009999999311	0	-2.291776764e-05	-41.58406067	-0.0001934530155	1.0
[LeftHand]
18	283.2879944	0	0	10.11183167	-5.764752388	2.576779127	1.0
19	283.2879944	0	0	11.25318336	-10.57440376	7.666243076	1.0
20	283.2879944	0	0	9.60282135	-15.09614086	14.35297394	1.0
[LeftHandThumb1]
18	24.6609993	-15.75	26.8239994	9.793483734	-6.787197113	-5.306797981	1.0
19	24.6609993	-15.75	26.8239994	10.7132616	-7.443071365	-6.582676888	1.0
20	24.6609993	-15.75	26.8239994	11.1766119	-7.917379379	-7.290131092	1.0
[LeftHandThumb2]
18	32.29800034	-18.64699936	18.64699936	-0.02155726776	22.45300484	10.7672081	1.0
19	32.29800034	-18.64699936	18.64699936	-0.6168099046	22.585495	10.99629784	1.0
20	32.29800034	-18.64699936	18.64699936	-0.7090664506	22.9949913	11.04358006	1.0
[LeftHandThumb3]
18	26.52600098	-15.31499958	15.31499958	2.503653765	11.14160347	1.228990674	1.0
19	26.52600098	-15.31499958	15.31499958	2.432376385	10.94016171	1.281593561	1.0
20	26.52600098	-15.31499958	15.31499958	2.361867666	10.7421484	1.332792163	1.0
[LeftHandThumb4]
18	19.54599953	-11.28499985	11.28499985	0	0	0	1.0
19	19.54599953	-11.28499985	11.28499985	0	0	0	1.0
20	19.54599953	-11.28499985	11.28499985	0	0	0	1.0
[LeftHandIndex1]
18	91.09299469	-5.170999527	22.60099792	-0.6457921267	-0.811324656	-8.546611786	1.0
19	91.09299469	-5.170999527	22.60099792	-0.6321632266	-0.8861813545	-8.403792381	1.0
20	91.09299469	-5.170999527	22.60099792	-0.62478441	-0.6401226521	-8.31536293	1.0
[LeftHandIndex2]
18	36.76399994	0	0	0.0181313958	0.7871867418	-2.286045174e-06	1.0
19	36.76399994	0	0	0.01812540367	0.7830736041	-0.0001299272408	1.0
20	36.76399994	0	0	0.018007854	0.7918242812	-0.007249997463	1.0
[LeftHandIndex3]
18	28.83100128	0	0	-0.04122841358	-0.7157515883	5.013484955	1.0
19	28.83100128	0	0	-0.04626824707	-0.7701807022	5.557028294	1.0
20	28.83100128	0	0	-0.04853066802	-0.7929337621	5.784281731	1.0
[LeftHandIndex4]
18	23.92700005	0	0	0	0	0	1.0
19	23.92700005	0	0	0	0	0	1.0
20	23.92700005	0	0	0	0	0	1.0
[LeftHandMiddle1]
18	95.33399963	0	0	-2.234519243	4.927242279	-22.03432465	1.0
19	95.33399963	0	0	-2.155784607	4.855452061	-21.41944122	1.0
20	95.33399963	0	0	-2.065913439	4.949785233	-20.69258308	1.0
[LeftHandMiddle2]
18	36.98199844	0	0	0.00870792754	0.9673455954	-1.444829583	1.0
19	36.98199844	0	0	0.02369670011	0.8845661879	-0.6156874895	1.0
20	36.98199844	0	0	0.03151812032	0.8384873867	-0.155091688	1.0
[LeftHandMiddle3]
18	29.50900078	0	0	-0.01152711548	-0.2758922279	5.555506706	1.0
19	29.50900078	0	0	-0.02247970738	-0.3993428946	6.800402164	1.0
20	29.50900078	0	0	-0.031912826	-0.4871712029	7.687743187	1.0
[LeftHandMiddle4]
18	28.3390007	0	0	0	0	0	1.0
19	28.3390007	0	0	0	0	0	1.0
20	28.3390007	0	0	0	0	0	1.0
[LeftHandRing1]
18	91.04499817	-0.4390000105	-18.65100098	-2.754734755	10.5728302	-25.24642563	1.0
19	91.04499817	-0.4390000105	-18.65100098	-2.581969976	10.46574306	-23.93264198	1.0
20	91.04499817	-0.4390000105	-18.65100098	-2.42945528	10.4190712	-22.7420578	1.0
[LeftHandRing2]
18	31.54000092	0	0	0.006269572303	0.6040412188	-2.639321089	1.0
19	31.54000092	0	0	0.005890785251	0.4822979271	-1.412543416	1.0
20	31.54000092	0	0	0.004094800912	0.3979204595	-0.5618608594	1.0
[LeftHandRing3]
18	29.37700081	0	0	0.006214986555	-0.2985829711	2.936032295	1.0
19	29.37700081	0	0	-0.02454859577	-0.4822105765	4.805716038	1.0
20	29.37700081	0	0	-0.05472288281	-0.6342095733	6.361832619	1.0
[LeftHandRing4]
18	26.47500038	0	0	0	0	0	1.0
19	26.47500038	0	0	0	0	0	1.0
20	26.47500038	0	0	0	0	0	1.0
[LeftHandPinky1]
18	80.77799988	-4.887000084	-38.06099701	-3.637720823	12.33278942	-30.80541229	1.0
19	80.77799988	-4.887000084	-38.06099701	-3.51473546	12.11026287	-28.99399567	1.0
20	80.77799988	-4.887000084	-38.06099701	-3.390451908	12.16430092	-27.46573639	1.0
[LeftHandPinky2]
18	36	0	0	-0.0525989905	0.3424998522	-5.227097988	1.0
19	36	0	0	-0.02211672254	0.09848444164	-2.770119429	1.0
20	36	0	0	-0.006667768117	-0.07766097039	-1.003973961	1.0
[LeftHandPinky3]
18	21.14200211	0	0	0.0005062958808	-0.01171187777	8.680609703	1.0
19	21.14200211	0	0	-0.02049153112	-0.2523607612	11.08854103	1.0
20	21.14200211	0	0	-0.04564228654	-0.4515893459	13.09030819	1.0
[LeftHandPinky4]
18	19.75699997	0	0	0	0	0	1.0
19	19.75699997	0	0	0	0	0	1.0
20	19.75699997	0	0	0	0	0	1.0
[RightShoulder]
18	-45.70000076	109.4620056	-26.28000069	5.188117027	14.72133923	12.14845753	1.0
19	-45.70000076	109.4620056	-26.28000069	5.206113338	15.43929863	11.82426071	1.0
20	-45.70000076	109.4620056	-26.28000069	5.6578269	16.64380074	13.49947262	1.0
[RightArm]
18	-105.9280014	-5.248000145	-22.32099915	-30.93860626	-27.93252563	77.84262848	1.0
19	-105.9280014	-5.248000145	-22.32099915	-33.60116577	-28.51769829	80.36610413	1.0
20	-105.9280014	-5.248000145	-22.32099915	-31.38825417	-27.03805733	79.15008545	1.0
[RightForeArm]
18	-278.414978	0	0	-4.96856137e-06	3.208480835	-5.6671729e-06	1.0
19	-278.414978	0	0	-5.842583505e-06	1.634491801	-7.270845344e-06	1.0
20	-278.414978	0	0	-5.838813308e-07	0.4428585172	-4.963589618e-06	1.0
[RightHand]
18	-283.2879944	0	0.0009999999311	17.97929001	-2.340827227	-1.071775436	1.0
19	-283.2879944	0	0.0009999999311	18.03518867	-8.051608086	0.5438839197	1.0
20	-283.2879944	0	0.0009999999311	20.46442223	-12.90840149	3.747274399	1.0
[RightHandPinky1]
18	-80.76699829	-4.885000229	-38.06000137	-1.834754944	-16.5985775	16.90134239	1.0
19	-80.76699829	-4.885000229	-38.06000137	-3.086799622	-17.3025074	24.31453514	1.0
20	-80.76699829	-4.885000229	-38.06000137	-5.142606258	-17.54026794	34.87444687	1.0
[RightHandPinky2]
18	-36	0	0.0009999999311	-0.0188528765	-0.06514649838	2.451781034	1.0
19	-36	0	0.0009999999311	-0.1201224774	-0.7155255079	9.032388687	1.0
20	-36	0	0.0009999999311	-0.4058762789	-1.648554921	18.799263	1.0
[RightHandPinky3]
18	-21.14200211	0	0	-0.1604765654	3.177649021	-9.994509697	1.0
19	-21.14200211	0	0	-0.139524743	2.522602081	-3.456828833	1.0
20	-21.14200211	0	0	-0.2469642758	1.551711082	6.288511753	1.0
[RightHandPinky4]
18	-19.75699997	0	0	0	0	0	1.0
19	-19.75699997	0	0	0	0	0	1.0
20	-19.75699997	0	0	0	0	0	1.0
[RightHandRing1]
18	-91.03599548	-0.4390000105	-18.65100098	-1.807779312	-12.90336514	16.71682739	1.0
19	-91.03599548	-0.4390000105	-18.65100098	-2.66085577	-13.43207741	23.45066261	1.0
20	-91.03599548	-0.4390000105	-18.65100098	-3.858531475	-13.79967594	32.43094635	1.0
[RightHandRing2]
18	-31.54000092	0	0	0.00589670334	-0.4825017154	1.41476965	1.0
19	-31.54000092	0	0	-0.008027312346	-0.9661276937	6.293004513	1.0
20	-31.54000092	0	0	-0.1066327244	-1.688835502	13.652318	1.0
[RightHandRing3]
18	-29.37700081	0	0	-0.157788679	2.5830791	-7.427108288	1.0
19	-29.37700081	0	0	-0.05710091069	2.024991512	-1.726307034	1.0
20	-29.37700081	0	0	-0.01121730637	1.174637198	6.834287643	1.0
[RightHandRing4]
18	-26.47500038	0	0	0	0	0	1.0
19	-26.47500038	0	0	0	0	0	1.0
20	-26.47500038	0	0	0	0	0	1.0
[RightHandMiddle1]
18	-95.32500458	0	0	-1.031719804	-9.080866814	11.66528034	1.0
19	-95.32500458	0	0	-1.701490641	-9.695193291	17.29416084	1.0
20	-95.32500458	0	0	-2.655978441	-9.853228569	24.84901047	1.0
[RightHandMiddle2]
18	-36.98199844	0	0	0.008915287443	-0.9662160277	1.433862209	1.0
19	-36.98199844	0	0	-0.0909088105	-1.402631044	5.849227905	1.0
20	-36.98199844	0	0	-0.2991997302	-2.030249119	12.37611675	1.0
[RightHandMiddle3]
18	-29.50900078	0	0	-0.004495876841	0.06172013283	-1.831923604	1.0
19	-29.50900078	0	0	-0.01760423556	-0.4033432305	2.842789888	1.0
20	-29.50900078	0	0	-0.1066978201	-1.087464571	9.778225899	1.0
[RightHandMiddle4]
18	-28.3390007	0	0.0009999999311	0	0	0	1.0
19	-28.3390007	0	0.0009999999311	0	0	0	1.0
20	-28.3390007	0	0.0009999999311	0	0	0	1.0
[RightHandIndex1]
18	-91.08300018	-5.167999744	22.60099792	0.1229058504	-2.538918972	1.890267611	1.0
19	-91.08300018	-5.167999744	22.60099792	-0.1220328882	-3.17905736	6.065222263	1.0
20	-91.08300018	-5.167999744	22.60099792	-0.4903229773	-3.530694485	11.54385471	1.0
[RightHandIndex2]
18	-36.76399994	0	0	-0.00491657434	-0.9443151951	1.521747828	1.0
19	-36.76399994	0	0	-0.06201430038	-1.243273497	4.511542797	1.0
20	-36.76399994	0	0	-0.1717392653	-1.668579221	8.828061104	1.0
[RightHandIndex3]
18	-28.83100128	0	0	-0.09749584645	0.6705127954	5.487022877	1.0
19	-28.83100128	0	0	-0.1365395486	0.3554661274	8.643270493	1.0
20	-28.83100128	0	0	-0.2237616926	-0.09624289721	13.21846485	1.0
[RightHandIndex4]
18	-23.92700005	0	0	0	0	0	1.0
19	-23.92700005	0	0	0	0	0	1.0
20	-23.92700005	0	0	0	0	0	1.0
[RightHandThumb1]
18	-24.64799881	-15.72700024	26.82600021	7.457054138	-1.206927061	-0.919682622	1.0
19	-24.64799881	-15.72700024	26.82600021	7.892012596	-2.226029396	-1.407590151	1.0
20	-24.64799881	-15.72700024	26.82600021	8.565735817	-3.758772373	-2.161784887	1.0
[RightHandThumb2]
18	-32.29800034	-18.64699936	18.64699936	12.14994621	-14.68629265	-14.03422832	1.0
19	-32.29800034	-18.64699936	18.64699936	14.09444237	-15.06864166	-14.30403042	1.0
20	-32.29800034	-18.64699936	18.64699936	14.49939919	-15.80196762	-14.79741859	1.0
[RightHandThumb3]
18	-26.52600098	-15.31399918	15.31399918	3.977643728	-1.246788144	0.6810452938	1.0
19	-26.52600098	-15.31399918	15.31399918	4.433758259	-1.678934455	0.4863109887	1.0
20	-26.52600098	-15.31399918	15.31399918	4.691766262	-3.672688246	0.2451913357	1.0
[RightHandThumb4]
18	-19.54599953	-11.28499985	11.28499985	0	0	0	1.0
19	-19.54599953	-11.28499985	11.28499985	0	0	0	1.0
20	-19.54599953	-11.28499985	11.28499985	0	0	0	1.0
[LeftUpLeg]
18	82.07800293	-67.51699829	-15.99599934	19.76382828	11.29842567	3.307327032	1.0
19	82.07800293	-67.51699829	-15.99599934	20.57969093	9.635175705	4.437079906	1.0
20	82.07800293	-67.51699829	-15.99599934	14.37647724	8.432011604	6.25853157	1.0
[LeftLeg]
18	0	-443.7049866	2.845999956	6.749150276	-8.111741066	2.046904087	1.0
19	0	-443.7049866	2.845999956	14.09733868	-4.559499264	5.92291832	1.0
20	0	-443.7049866	2.845999956	31.67259216	-1.782553196	9.477737427	1.0
[LeftFoot]
18	0	-444.2789917	-29.8219986	-2.190142393	0.07493225485	1.655164719	1.0
19	0	-444.2789917	-29.8219986	7.151651859	-0.6109827161	-1.57164979	1.0
20	0	-444.2789917	-29.8219986	17.63991928	-0.7684860826	-4.610667706	1.0
[LeftToeBase]
18	0	-87.28699493	107.1060028	-24.92698479	-1.776811719	-4.341338634	1.0
19	0	-87.28699493	107.1060028	-27.65755081	-2.45692873	-6.703125477	1.0
20	0	-87.28699493	107.1060028	-11.95351982	-0.8939055204	-6.105003834	1.0
[RightUpLeg]
18	-82.07800293	-67.51699829	-15.99599934	-36.36050034	-4.367935658	-0.172491923	1.0
19	-82.07800293	-67.51699829	-15.99599934	-35.68876266	-3.570011139	1.604000092	1.0
20	-82.07800293	-67.51699829	-15.99599934	-33.05690384	-2.244739294	4.030321121	1.0
[RightLeg]
18	0	-443.7049866	2.861999989	8.394385338	-5.507875919	-3.013195038	1.0
19	0	-443.7049866	2.861999989	16.87718773	-6.940011501	-4.033885956	1.0
20	0	-443.7049866	2.861999989	24.14937401	-7.471484184	-4.882488728	1.0
[RightFoot]
18	0	-444.2770081	-29.83799934	-6.573898792	-1.200321198	2.581166506	1.0
19	0	-444.2770081	-29.83799934	-1.957431436	-2.380141258	-1.568889856	1.0
20	0	-444.2770081	-29.83799934	2.902316332	-2.736585855	-1.763952374	1.0
[RightToeBase]
18	0	-87.28699493	107.1060028	-2.489434481	-1.622075979e-05	-1.019524461e-05	1.0
19	0	-87.28699493	107.1060028	-4.029629707	-1.017522663e-05	-2.412281219e-06	1.0
20	0	-87.28699493	107.1060028	-3.890396833	-4.39938558e-05	-4.25177916e-07	1.0
[EndOfFile]
